<?xml version="1.0" ?><!DOCTYPE svg  PUBLIC '-//W3C//DTD SVG 1.1//EN'  'http://www.w3.org/Graphics/SVG/1.1/DTD/svg11.dtd'><svg enable-background="new 0 0 64 64" height="64px" id="Layer_1" version="1.1" viewBox="0 0 64 64" width="64px" xml:space="preserve" xmlns="http://www.w3.org/2000/svg" xmlns:xlink="http://www.w3.org/1999/xlink"><g><path d="M50.705,31.169H34.128c-0.132,0-0.276,0.017-0.407,0.048v-0.048h-2.789v11.549h2.789v-0.047   c0.131,0.03,0.275,0.047,0.407,0.047h16.577c1.778,0,3.197-1.353,3.197-3.033v-5.48C53.902,32.521,52.483,31.169,50.705,31.169z    M50.654,38.084c0,0.722-1.027,1.291-2.283,1.291H36.478c-1.257,0-2.284-0.569-2.284-1.291V35.77c0-0.719,1.027-1.289,2.284-1.289   h11.894c1.256,0,2.283,0.57,2.283,1.289V38.084z" fill="#EFEFEF"/><path d="M50.705,46.049H34.128c-0.132,0-0.276,0.019-0.407,0.048v-0.048h-2.789v11.567h2.789v-0.048   c0.131,0.032,0.275,0.048,0.407,0.048h16.577c1.778,0,3.197-1.37,3.197-3.034v-5.5C53.902,47.403,52.483,46.049,50.705,46.049z    M50.654,52.981c0,0.702-1.027,1.272-2.283,1.272H36.478c-1.257,0-2.284-0.57-2.284-1.272v-2.332c0-0.7,1.027-1.289,2.284-1.289   h11.894c1.256,0,2.283,0.589,2.283,1.289V52.981z" fill="#EFEFEF"/><g><path d="M60.55,28.238v34.621c0,0,0.032,1.144-0.996,1.144h-1.223c0,0-1.142-0.048-1.142-1.224v-31.62    c0-1.616-1.288-2.921-2.873-2.921H9.747c-1.599,0-2.888,1.305-2.888,2.921v31.637c-0.018,0.407-0.196,1.206-1.16,1.206H4.802    c0,0-1.352,0.047-1.352-1.273V28.238c0-1.794,1.467-3.264,3.262-3.264h28.273c0.018-0.03,0.031-0.047,0.051-0.082    c0-0.018,0-0.033,0.016-0.033c0.049-0.098,0.098-0.179,0.164-0.261c0,0,0.017-0.017,0.031-0.032    c1.207-2.073,3.312-3.574,5.792-3.981l3.785-6.657c0-0.017,0.016-0.017,0.016-0.033c0.294-0.488,0.019-1.011-0.163-1.272    c-0.081-0.114-0.148-0.18-0.148-0.18l-4.435-5.155l-2.123,5.596l-5.235-5.401l-0.229-0.245l-2.823-2.823L35.767,2.1h0.018    c0.146-0.245,0.325-0.475,0.538-0.703c1.547-1.631,3.965-1.876,5.384-0.521c1.189,1.143,1.32,3.034,0.392,4.585l6.134,7.146    c0,0,0.05,0.032,0.082,0.098c0.017,0.017,0.032,0.048,0.049,0.082c0.017,0.083,0.032,0.195-0.017,0.343    c0,0.033-0.016,0.065-0.032,0.114c-0.017,0.048-0.049,0.098-0.082,0.147v0.032l-4.111,7.211c2.251,0.458,4.179,1.828,5.367,3.703    l0.376,0.62v0.016h7.424C59.081,24.974,60.55,26.444,60.55,28.238z" fill="#EFEFEF"/></g></g></svg>
